<svg width="513" height="513" viewBox="0 0 513 513" fill="none" xmlns="http://www.w3.org/2000/svg">
<path d="M512.696 168.244C512.718 136.08 507.402 104.585 497.384 77.5309C487.366 50.4764 473.069 29.0078 456.206 15.6948C443.688 5.80472 430.097 0.68032 416.344 0.665833H4.69218C2.48442 0.665833 0.689619 2.46531 0.725332 4.67278C1.29745 40.0363 10.1111 44.9378 25.4139 71.6306C41.2766 99.3002 62.8152 114.908 85.3002 115.028H375.864C381.805 115.075 387.572 118.513 392.277 124.812C396.489 130.453 399.64 178.057 401.355 195.104C401.601 197.544 399.685 199.711 397.233 199.711H90.2105C88.0017 199.711 86.1994 201.522 86.252 203.73C86.5692 217.029 88.7386 206.436 92.6626 222.894C96.926 240.774 103.177 257.021 111.058 270.706C118.939 284.39 128.296 295.243 138.595 302.646C148.893 310.048 159.93 313.854 171.076 313.847H404.239C410.183 313.906 415.951 317.356 420.655 323.665C424.867 329.315 428.017 376.93 429.731 393.981C429.976 396.42 428.061 398.586 425.609 398.586H176.248C174.039 398.586 172.243 400.388 172.282 402.597C172.896 437.986 181.763 442.882 197.115 469.528C213.03 497.149 234.611 512.666 257.112 512.666H508.696C510.905 512.666 512.696 510.875 512.696 508.666V168.244Z" fill="#D40511"/>
</svg>
