<?xml version="1.0" encoding="UTF-8"?>
<svg id="Layer_1" data-name="Layer 1" xmlns="http://www.w3.org/2000/svg" viewBox="0 0 513 513">
  <defs>
    <style>
      .cls-1 {
        fill: #468b40;
      }
    </style>
  </defs>
  <path class="cls-1" d="M270.72,456.81v-45.4c0-2.79,1.71-5.16,4.18-6.45,5.67-2.96,5.28-9.29,5.28-9.29V64.56c0-1.99-1.66-3.61-3.65-3.56-99.05,2.51-143.2,52.46-152.77,65.04-1.41,1.85-3.41,3.16-5.68,3.67l-57.79,12.92c-2.79.62-7.02,2.41-9.35,4.07-35.89,25.63-30.83,98.51-30.83,98.51,1.73,5.19,6.49,8.47,9.45,10.06,1.48.8,2.27,2.45,2,4.1l-11.49,72.72-4.3,8.77c-1.25,2.55-1.9,5.35-1.9,8.19v73.8c0,1.86.81,3.63,2.21,4.85l3.8,3.31c1.27,1.1,1.99,2.7,1.99,4.38v21.41s18.23,20,125.15,20,123.69-20,123.69-20ZM160.91,299.36c0,3.27-2.32,6.08-5.53,6.71l-99.25,19.2v-90.09c0-6.06,4.91-10.97,10.97-10.97h86.85c3.85,0,6.97,3.12,6.97,6.97v68.18ZM183.19,299.15v-76.14h42.54c7.63,0,13.6,6.46,13.25,14.09-2.66,58.25-55.79,62.05-55.79,62.05Z"/>
  <path class="cls-1" d="M475.78,331.72c-11.29,2.9-1.81,18.88-3.92,29.49-3.86,19.43-29.34,31.83-31.42,42.5-5.39,27.57,21.8,34.43,38,15.8l18.6-31.85c15.69,42.67-10.52,84.17-57.89,78.8-32.22-3.65-50.86-44.56-35.39-72.33,8.26-14.83,47.61-31.4,43.23-52.14l-1.53-5.98,30.33-4.28Z"/>
  <path class="cls-1" d="M475.98,72.42v166.59c4.87,7.49,24.98,21.44,27.96,28.01,1.4,3.07,1.44,17.81.76,21.48-1.87,10.07-25.78,34.67-30.74,47.65-.27.71-.81,1.42-1.56,1.47-29.72,1.86-30.74-1.92-30.74-1.92-4.8-6.37-27.04-38.03-28.8-43.19-.99-2.9-2.03-18.35-1.74-21.59.51-5.84,25.68-26.07,29.67-33.5V81.13M447.18,81.13v157.08h20.79V81.13M453.13,275.32c-13.51,3.04-12.08,25.88,2.88,26.93,22.03,1.55,20.08-32.1-2.88-26.93ZM467.99,322.96h-20.81v4.78h20.81v-4.78Z"/>
  <path class="cls-1" d="M457.58,30.49c-15.21,0-27.54,12.33-27.54,27.54,0,1.68.17,3.31.46,4.9l-148.12,354.05v45.23c0,2.61,2.11,4.72,4.72,4.72h44.2c2.11,0,3.96-1.4,4.54-3.42l108.8-381.17c3.86,2.06,8.26,3.23,12.94,3.23,15.21,0,27.54-12.33,27.54-27.54s-12.33-27.54-27.54-27.54Z"/>
</svg>